<svg width="24" height="24" viewBox="0 0 24 24" fill="none" xmlns="http://www.w3.org/2000/svg">
<path id="checklist 1 (Traced)" fill-rule="evenodd" clip-rule="evenodd" d="M6.76927 0.0614715C2.73363 0.513694 0.705106 2.42889 0.0973935 6.3605C0.00760892 6.94135 0 7.3817 0 12.0041C0 16.5646 0.00850093 17.0722 0.0940351 17.6214C0.694558 21.476 2.55716 23.3317 6.40194 23.906C6.97319 23.9913 7.49442 24 12.0168 24C17.4704 24 17.4455 24.0012 18.7548 23.6787C21.5321 22.9944 23.1474 21.2885 23.7422 18.411C23.9968 17.1789 24.0143 16.7074 23.9937 11.6219C23.9727 6.42823 23.9783 6.53044 23.6394 5.16748C22.9934 2.56906 21.3788 0.968383 18.7598 0.329844C17.4526 0.0111254 17.5414 0.0155879 12.2529 0.00272574C8.47129 -0.00651399 7.25986 0.00645311 6.76927 0.0614715ZM17.5791 1.7829C20.1954 2.24961 21.4768 3.35738 22.042 5.64117C22.295 6.66311 22.3019 6.83289 22.3019 12.0566C22.3019 17.3419 22.3005 17.371 22.0178 18.4718C21.5239 20.3946 20.3773 21.5417 18.4553 22.0359C17.355 22.3187 17.3259 22.32 12.043 22.32C6.82164 22.32 6.65193 22.3132 5.63046 22.0601C3.29254 21.481 2.11259 20.0544 1.74784 17.366C1.64887 16.6368 1.64887 7.37142 1.74784 6.64216C2.11259 3.95382 3.29254 2.52722 5.63046 1.94806C5.90264 1.88065 6.34113 1.80043 6.60476 1.76988C6.86839 1.73932 7.15496 1.70546 7.24154 1.6946C7.32813 1.68378 9.58324 1.68021 12.2529 1.68677C16.4409 1.69701 17.1716 1.71024 17.5791 1.7829ZM8.63071 6.1052C8.55935 6.15245 8.06041 6.62835 7.52202 7.16279L6.5431 8.13443L6.29736 7.93294C6.08804 7.76137 6.00607 7.72819 5.74433 7.70924C5.36724 7.682 5.1141 7.81487 4.95726 8.12241C4.8288 8.37435 4.82759 8.60854 4.95343 8.88043C5.06625 9.12429 5.97412 10.0313 6.18606 10.1119C6.38972 10.1893 6.72341 10.1798 6.88996 10.0917C6.96789 10.0505 7.66155 9.38316 8.43141 8.60865C9.65056 7.38212 9.8359 7.17444 9.86812 6.99857C9.93639 6.62578 9.70776 6.19193 9.37649 6.06557C9.17871 5.99018 8.77171 6.01181 8.63071 6.1052ZM12.064 7.74673C11.7459 7.89131 11.597 8.13023 11.597 8.49599C11.597 8.8303 11.6947 9.00748 11.99 9.20855L12.1635 9.32667H15.3489H18.5344L18.7078 9.20855C18.9586 9.03782 19.0828 8.84552 19.1107 8.58455C19.1456 8.26032 18.9613 7.92863 18.6569 7.76762L18.4284 7.64672L15.3538 7.64787C12.4688 7.64897 12.2659 7.65506 12.064 7.74673ZM8.73708 13.8996C8.66493 13.9278 8.14091 14.4149 7.57261 14.982L6.53932 16.013L6.30481 15.7968C5.91519 15.4375 5.45755 15.4302 5.11012 15.7778C4.89402 15.994 4.82003 16.243 4.87881 16.5565C4.93191 16.8395 5.98739 17.8989 6.31011 17.993C6.7593 18.124 6.83119 18.0739 8.33638 16.5799C9.81717 15.1101 9.92957 14.9607 9.86718 14.5446C9.78962 14.027 9.22893 13.707 8.73708 13.8996ZM12.0937 15.5645C11.798 15.6956 11.5712 16.0269 11.5709 16.3281C11.5707 16.5919 11.7545 16.9141 11.9885 17.0596L12.1742 17.1752H15.3489H18.5237L18.7167 17.0551C18.9758 16.8939 19.1502 16.5354 19.1112 16.2443C19.0776 15.9945 18.9517 15.8057 18.7078 15.6396L18.5344 15.5215L15.3543 15.5252C13.6052 15.5272 12.138 15.5449 12.0937 15.5645Z" fill="white"/>
</svg>
